<svg width="25" height="24" fill="none" xmlns="http://www.w3.org/2000/svg"><path fill="#415167" d="M.775 0h23.932v24H.775z"/><path d="M5.08 4.664h13.372c.04 0 .077.015.114.027l.33-1.101a.818.818 0 01.78-.59h1.631c.226 0 .408.186.408.416v.832c0 .23-.183.416-.408.416H20.28l-2.549 8.54.952 1.133c.376.448.546 1.064.372 1.627-.221.719-.844 1.179-1.561 1.179H5.806a.412.412 0 01-.408-.416v-.832c0-.23.183-.416.408-.416h11.688L16.2 13.941c-.033-.04-.057-.083-.082-.126H8.215a1.63 1.63 0 01-1.477-.956L3.89 6.691a1.373 1.373 0 01-.125-.57v-.118c0-.74.589-1.34 1.314-1.34z" fill="#F9FBFF"/><path d="M16.907 21c-.885 0-1.602-.72-1.602-1.607 0-.888.717-1.607 1.602-1.607.886 0 1.603.72 1.603 1.607S17.792 21 16.907 21zm-9.615 0c-.885 0-1.602-.72-1.602-1.607 0-.888.717-1.607 1.602-1.607.885 0 1.603.72 1.603 1.607S8.177 21 7.292 21z" fill="#fff"/></svg>