<svg width="30" height="26" fill="none" xmlns="http://www.w3.org/2000/svg"><path d="M14.02 1.394c-.161-.277-.508-.412-.774-.44a.877.877 0 00-.76.467L9.375 7.245l1.632 1.871 1.508-2.433c.321-.517 1.169-.517 1.49 0l1.508 2.433 1.772-2.079-3.266-5.643z" fill="#415167"/><path d="M18.75 9.596l-.517-.894-2.081 2.528c-.172.238-.42.393-.742.363a.876.876 0 01-.712-.416L13.245 8.83l-1.452 2.346a.876.876 0 01-.713.416h-.033a.876.876 0 01-.709-.363L8.444 8.961.104 24.486a.895.895 0 00.02.875.877.877 0 00.755.433h9.9a2.676 2.676 0 01.17-2.196L18.75 9.596zm3.2.707c-.311-.558-1.225-.558-1.538 0l-1.838 3.283 2.608 2.863 2.607-2.863-1.838-3.283z" fill="#415167"/><path d="M29.887 24.472l-5.226-9.265-2.833 3.176a.878.878 0 01-1.351 0l-2.833-3.175-5.167 9.264a.891.891 0 00.007.883.877.877 0 00.758.439h15.879a.88.88 0 00.759-.44.891.891 0 00.007-.882z" fill="#415167"/></svg>