<svg width="25" height="24" viewBox="0 0 25 24" fill="none" xmlns="http://www.w3.org/2000/svg">
<rect x="0.774902" width="23.9316" height="24" fill="#415167"/>
<path d="M5.08023 4.66388H18.4518C18.492 4.66388 18.5288 4.67932 18.5665 4.69091L18.8952 3.58959C18.9997 3.23936 19.3165 3 19.6755 3H21.3072C21.5325 3 21.7151 3.18625 21.7151 3.41598V4.2479C21.7151 4.47763 21.5325 4.66388 21.3072 4.66388H20.2798L17.7311 13.2046L18.683 14.337C19.0592 14.7846 19.2286 15.4013 19.0555 15.9637C18.834 16.683 18.2114 17.1429 17.4937 17.1429H5.80605C5.58076 17.1429 5.39811 16.9566 5.39811 16.7269V15.895C5.39811 15.6652 5.58076 15.479 5.80605 15.479H17.4937L16.2006 13.9406C16.1681 13.9019 16.1442 13.8583 16.1195 13.8151H8.21455C7.58228 13.8151 7.00692 13.4428 6.73769 12.8594L3.8911 6.69125C3.80946 6.51374 3.76643 6.31673 3.76643 6.12131V6.0035C3.76643 5.26369 4.35465 4.66388 5.08023 4.66388Z" fill="#F9FBFF"/>
<path d="M16.9074 21.0001C16.0223 21.0001 15.3048 20.2805 15.3048 19.3929C15.3048 18.5053 16.0223 17.7858 16.9074 17.7858C17.7925 17.7858 18.5099 18.5053 18.5099 19.3929C18.5099 20.2805 17.7925 21.0001 16.9074 21.0001Z" fill="white"/>
<path d="M7.29209 21.0001C6.40702 21.0001 5.68953 20.2805 5.68953 19.3929C5.68953 18.5053 6.40702 17.7858 7.29209 17.7858C8.17716 17.7858 8.89465 18.5053 8.89465 19.3929C8.89465 20.2805 8.17716 21.0001 7.29209 21.0001Z" fill="white"/>
</svg>
